# xmcd
#
# Track frame offsets: 
#        150
#        16825
#        36805
#        55588
#        76738
#        92745
#        109908
#        126498
#        138528
#        152249
#        169358
#        182258
#        202188
#        219522
#        245693
#        257504
#        280166
#        297561
#
# Disc length: 4123 seconds
#
# Revision: 1
# Processed by: cddbd v1.5.2PL0 Copyright (c) Steve Scherf et al.
# Submitted via: ExactAudioCopy v0.99pb5
#
DISCID=08101912
DTITLE=Various Artist - The 18th Bluesfest - Byron Bay
DYEAR=2007
DGENRE=Blues
TTITLE0=John Butler Trio - Funky Tonight
TTITLE1=John Mayer - Bigger Than My Body
TTITLE2=Ben Harper - Morning Yearning
TTITLE3=Wolfmother - Joker and the Thief
TTITLE4=Missy Higgins - This is how it Goes
TTITLE5=Bonnie Raitt - Unnecessarily Mercenary
TTITLE6=Paolo Nutini - Last Request
TTITLE7=Xavier Rudd - Food in the Belly
TTITLE8=Ash Grunwald - Open Road
TTITLE9=Sierra Leones Refugee all Stars - Living like a Refugee
TTITLE10=Paul Kelly - Careless
TTITLE11=The Black Sorrows - What Levi Wants
TTITLE12=Amos Lee - Shout Out Loud
TTITLE13=The Waifs - Up All Night
TTITLE14=The Flairz - Bullseye
TTITLE15=Fred Eaglesmith - 18 Wheels
TTITLE16=Fiona Boyes and The Fortune Tellers - Celebrate the Curves
TTITLE17=Kieran Kane, Kevin Welch and Fats Kaplin - Postcard From Mexico
EXTD=YEAR: 2007
EXTT0=
EXTT1=
EXTT2=
EXTT3=
EXTT4=
EXTT5=
EXTT6=
EXTT7=
EXTT8=
EXTT9=
EXTT10=
EXTT11=
EXTT12=
EXTT13=
EXTT14=
EXTT15=
EXTT16=
EXTT17=
PLAYORDER=
